/* XPM */
static char *result[] = {
/* columns rows colors chars-per-pixel */
"64 64 13 1 ",
"  c #3F7100",
". c #406F01",
"X c #457501",
"o c #487601",
"O c #477901",
"+ c #4B7C03",
"@ c #4D7F09",
"# c #507F04",
"$ c #4E8105",
"% c #4E8308",
"& c #518206",
"* c #528409",
"= c None",
/* pixels */
"=++++$+O++o+ooooX$*+O++$+$$++O+++%$$&X+++&&+X@#++oX*&+&@+##++o+o",
"=++++++++o+++ooo+$$++++$$$&++OO++$$$$+oo+&*+++@@+Xo&&@$+##++o#oX",
"=++oO**. ooXX++**+o&$OOOo++++++++$%XX+@++++++o+++$@XXOo+o+$O+$#+",
"=++++*&..o+XX++**oo&*O+O++++++++O%$X.@@++++oo+X+&+$XX+o+o+++X&++",
"=ooXXOX+$&$++@+&$++++##+#++++o+++XXXoXX@$+$+++o+++$+++&XX++XX#&@",
"=ooXX++++&&$$$$$$++++##@&++++++++XX+oXX$$@+@+o+o+++O+++XX++XO$#+",
"=@+XX$$O+++++++++XX##+$+++#@@++XO$$XX+++#&*ooo+&&OO++++$+++Xo++o",
"=@++X%$OO++++++++XX#++++O+#++++XO$$Oo++$&#*oooo&&XO++$+&+++X+++X",
"=+++$++*&+++++#+@XX+@#$++++**+++++@++XX+oo++oo+#+$++++++++oO+$+$",
"=O+++$+$$$++++&++XX+@$##$+$**$+++++++X o+++o++X++++++++oX+++X+$$",
"=+++++++OOOOX++XXX+++++oo++++++++&&++$+oo++oo++++++++++oX+&XX+++",
"=$+o+++O+OOOXo+XX+o+++ooX$+#++o+++&$+++Xo++oo+++++++$+#oX&++XoXX",
"=++OO++OOOOXX++++++XO++o+O+++++$$++#++o++XX+X$$++o++&++++OXXXX.+",
"=++O+++XO+OXX++++++XX++++++++++$$++#++o++XXo+$&+#o+$+++++XXXXXo+",
"=++OO++XX++$&++++oo++++$$@+$@@$$$+$++#@+++o+O+++$+O+++o++&#+oo+o",
"=+OOO++XX++&&$++@oOX+O+&$++@$$++$++++++++o+X++@&$OO++o+o+&&o+#oX",
"=+O$$++%$$@+#&&++++OO++$+++X+++$@Xo#&OO++.X$+++oOO++++$X+@@+$++&",
"=O+++++$$++$+$+++++X++++$+%+O++$@OO&&O+++XX+#o++OOO++@++o@@++++&",
"=++OO+O+O%$$++++O++++++X+++&$$$$&oX+++$++oO$$+ooo+O++O+++++OO++$",
"=@+OO++OO@$O+++XO++++X+Oo&+@*++$$OX+++$++XX$@++o+XX+O+O++@+OO+++",
"=@$++&&++++OOOOX +o+o++++XX++$$@+$$##++O+@$+XXX##+O@+++$@+++++++",
"=*$+O@#@+++  O+ .X+++++++XX++$$#&++#&++Oo$+++XX#&X++&++++++++OO+",
"=oo++%$XOO+$%O **++++$+OO++++++++O+OOOO$+XXOO  &&++oXOX+++$+++@$",
"=oo++$$XX+O$$ O%*+++++@OXo+O+$+++OOOO+++$XXO+ .&&++XOXO++++++@&+",
"=++++XX++O+++$OOO++@$$$@+++$+ooo+++++  $+OXoo++++++++++++++&+++&",
"=+o@+XX+%XO+++$O@++@$$$$$+O$@Oo+++@OO  $+XXoo+++++O+$+++@+++&+++",
"=XXo+XX&$o++%O+*&+&++++++@+OO++o+++$@++OX++++$++oOOXX+oXX+O X++o",
"=XXo+OO&&+o++++$&&##$+++++++O+o++O++++@O+X++++++++OXX++X O+XX++o",
"=&&++$+++o++$$%+++$$+ O+OXXo+++++++++++$@o++#ooOX$++++oo#o+XX+++",
"=&&++$@++XX$$*&+++O+$+OOOXX+o++++#++#+++@oo@+++oX+$Ooo++o++oO@++",
"=$$+O++o+$$O++$++++$$$$+$@@+#o++oXX@$OO+####+++o++OO+#oXo##+#@++",
"=$$++OX+o$$+O$+++$+$$+O$+%@+++X++XX$&OO$o#+++++o+++@+o#XX###++++",
"=$$OO++++#@XXXX+#..oX+++X++++@+++#$++++++X+$%oX#@+o++++#+$++++$+",
"=$$+O++$@##OXXX+@Xooo++++++@+##++#$+$++XX+X$@++$#++o++++&+$+++++",
"=++++XX+++O*%++Oo++#@++$+++o++++++++o#+&&+++OO+++oo+++$$$$$+++$o",
"=$+++XO++++*%++O+++@@++&#+++o+++o@@+o+##$++O++O++oo++$+$&$$++&+X",
"=+O++++XooO$$XXOo++@&+$XX##o+o+XX#@Xo#*+$$&+$++O+O+$&OO++$$$&$++",
"=++@$+$OOOO$$XXO+++@#&+XX##oX+oXX+#oo*&++&&+++++++O$$+++$$$+++++",
"=++OO++++#+++X+XX#+++++#+XX&&&&++++OX**++$$OOOOO+OX++@@$$+&##XX+",
"=++++++X++&+++XXX++@$+++&OX&&#&+#++OX&&++$$OOOO++OO++@@@&$+&++X+",
"=&&O+$++O++O$O+o+ooXX++++ X++O+O+**+++&+$+++$OOXX++%@#@O+$@+++++",
"=&&OO+++++O+OO++oooXX++++XX++OO++**++$+$++O+++OOOX+$###+O$#+O++@",
"=@++++@OX+@++OO@#++&+O++X++$$++$#o+++XO$+++@+$$XX$++++++@o++#+++",
"=@@++++XX@+++O+@&@#+$++++++%$++$#o++++O++o+++$$XX+@OX++++++#++++",
"=$$++++@+$$o+&$++$$+O++OO++$$$&&&++&&OO++OOO+++XX&&&$++oo+o+o+@o",
"=$$$$++#@$$oX&&++&&oO+o++++&%$&&&++&&OO++OXo+$+X.&&&&+#+oo+++#@o",
"=++++++  oX$$++O+O++@$&$$&&+$@+&&++&&+++O+X++O+++$+++++OO+@+@+++",
"=$+++oX  o+$$++OO++++**$$$&#++@$&++&*$+OO+++O++++++++OOO+++@+++o",
"=OO+O X++++X @+++++#*X+OOOOOOXXO###&&$+++.XXX@%+O+O$+++&&++ooX+o",
"=+O++  ++++X.+#o+Oo%&oX++X+OXXXO+#&&&+$++XXXX*@+++O++++##++oo+X+",
"=++XO++++%$XX&#+O+O$$X+O+$@+$OOOo++++#+++oX$$Xo+$++$%oX+oo+Xo+++",
"=O+XO++++$*Xo+++++++@+O+O$+++XO+X++++++++XX$$Xo+++$%%XX++++Xo++#",
"=O+++++$$++++$$@+XXXX++++O+O++@++XX$+++##++XX++OO++OO+O$#$+XX#++",
"=OO++++$$++++$$++X XX&+++XX+O+&+$XX++oo#+++oO++OO++OO++$#++oX+#+",
"=X.O+  X OO%$XX+X+X++++#++++$+&XX++$$&&XX$$**$+++OO$$++++&&##o+o",
"=XXO+XX  OO%%XXO++oO++++#++@@++XXO+++#&XX$$**++++OO$+++++&&+@++o",
"=++XXXXoOXXo+*&++++##++&$OXO+$&++&&+@oo++XO++&&++++OO$$%$&&+o+&+",
"=#+++XX+OXXOX&&++++@#++&$OO+O$$++##++ooXOOO+@&&++++O++@%$&*Xo@#+",
"=++OX++XOXo+++$&@oooXo+XO+++O+OOo++++ooXO+++#&&XXXX++XO++++O+O++",
"=+@XX++oO++O+++$&oooo++XO@+OoXOOX++++o+OO++$+&&OXXX++OO++$$OXOO+",
"=$+OO++@@oXXO+$+++#++++++++++++++++ooXO@+ X++++&$OO++@#O+oX$$X +",
"=$$O+++++oXXX$+++&##+$++O+++++O+@++++Xo+$X +X@+&$+X++##+oXX$+XX+",
"================================================================",
"================================================================"
};
