/* XPM */
static char *result[] = {
/* columns rows colors chars-per-pixel */
"64 64 41 1 ",
"  c black",
". c #160D05",
"X c #1D1306",
"o c #1E150A",
"O c gray11",
"+ c #261809",
"@ c #2E1D0B",
"# c #3D280E",
"$ c #302210",
"% c #2D2D2D",
"& c #442C11",
"* c #4F3313",
"= c #5B3B16",
"- c #754C1D",
"; c #775428",
": c #414141",
"> c #444444",
", c gray28",
"< c #4C4C4C",
"1 c gray30",
"2 c gray31",
"3 c gray33",
"4 c #565656",
"5 c gray36",
"6 c #606060",
"7 c #626262",
"8 c gray40",
"9 c gray42",
"0 c gray46",
"q c #777777",
"w c gray47",
"e c #875F2D",
"r c #A37237",
"t c #818181",
"y c #898989",
"u c gray57",
"i c gray58",
"p c #A0A0A0",
"a c gray64",
"s c gray69",
"d c None",
/* pixels */
"ddddddddddddddd       dddddddddddddddddd       ddddddddddddddddd",
"dddddddddddd   yyyyyy  dddddddddddddddd  yyyyyy   dddddddddddddd",
"dddddddddd  yyyyyyyyy %                % yyyyyyyyy  dddddddddddd",
"dddddddd  yyyyyyyyyyy %>qqqqqqqqqqqqqq>% yyyyyyyyyyy  dddddddddd",
"dddddd  yyyyyyyyyyyyy %>qqqqqqqqqqqqqq>% yyyyyyyyyyyyy  dddddddd",
"ddddd yyyyyyyyyyyyyyy %>qqqqqqqqqqqqqq>% yyyyyyyyyyyyyyy ddddddd",
"dddd y yyyyyyyyyyyyyy %>qqqqqqqqqqqqqq>% yyyyyyyyyyyyyy y dddddd",
"dddd yy yyyyyyyyyyppp 2>qqqqqqqqqqqqqq>2 pppyyyyyyyyyy yy dddddd",
"ddd yyyy yyyyyyyppppp 27uuuuuuuuuuuuuu72 pppppyyyyyyy yyyy ddddd",
"ddd yyyyy yyyypppp   , 7uuuuuuuuuuuuuu7 ,   ppppyyyy yyyyy ddddd",
"dd yyyyyyy ypppp  ,,,,,                ,,,,,  ppppy yyyyyyy dddd",
"dd yyyyyyyy pp  8,,,888888888888888888888,,,,8  pp yyyyyyyy dddd",
"dd yyyyyyypp  ,,8888,,,,,8,,,,,,,,,,,,8,,8888,,,  ppyyyyyyy dddd",
"d yyyyyyyypp  ,,8,,,8,,,,8,,,,,,,,,,,,8,,,,,88,,  ppyyyyyyyy ddd",
"d yyyyyyypp , ,8,,,,8,,,,8,,,,,,,,,,,,8,,,,,,,8, , ppyyyyyyy ddd",
"d yyyyyyypp ,8 ,,,,,,8888888888888888888,,,,,,, 8, ppyyyyyyy ddd",
"d yyyyyypp ,,8 ,,,888,,,,,,,,,,,,8,,,,,,8888,,, 8,8 ppyyyyyy ddd",
"d yyyyyypp 88, ,,8,,8,,,,,,,,,,,,8,,,,,,,,,,8,, ,88 ppyyyyyy ddd",
"d yyyyyypp ,8,, 8,,,,8,,,,,,,,,,,8,,,,,,,,,8,8 ,,8, ppyyyyyy ddd",
"d          ,8,, ,,,,,                   ,,8,,, ,,8,          ddd",
"d %%%%%%22 ,8,,8 ,   -------------------   ,, ,,,8, 22%%%%%% ddd",
"dd >>>>77 ,,8,8   &&&-&&&&&&&&&&&&&-&&&&&&&    ,,8,, 77>>>> dddd",
"dd        ,8,,8 ====&-============&-========== ,8,8,        dddd",
"dd uuqqqq ,8,, =====&-============&-=========== ,,8, qqqquu dddd",
"dd uuqqqq ,88, -------------------------------- ,,8, qqqquu dddd",
"dd uuqqqq ,8,8 &&&&&&&&-&&&&&&&&&&&&&&&&&&&&-&& ,88, qqqquu dddd",
"dd uuqqqq 88, ========&-===================&-=== ,8, qqqquu dddd",
"dd uuqqqq ,8, ========&-===================&-=== ,8, qqqquu dddd",
"dd uuqqqq ,8, ---------------------------------- ,8, qqqquu dddd",
"dd uuqqqq ,8, &&-&&&&&&&&&&&-&&&&&&&&&&&&-&&&&&& ,88 qqqquu dddd",
"dd uuqqqq ,8, =&-==========&-===========&-====== ,8, qqqquu dddd",
"dd        ,8, #&-==========&-===========&-=====# ,8,        dddd",
"d ppyyyyyy 8, *--------------------------------* ,8 yyyyyypp ddd",
"d ppyyyyyy 88 @@&&&-&&&&&&&&&&&&&-&&&&&&&&&&&-@@ 88 yyyyyypp ddd",
"d ppyyyyyy 8, ###=&-============&-==========&*## ,8 yyyyyypp ddd",
"d ppyyyyyyy , X###@-============&-=========#@*#X , yyyyyyypp ddd",
"; ppyyyyyyy , +*****----------------------*****+ , yyyyyyypp ;dd",
"r ppyyyyyyyy  ..@@@@@@@@&&-&&&&&&&&&&&@@@*@@@@..  yyyyyyyypp ;dd",
"d$ ppyyyyyyy  XXX########@*#############@*###XXX  yyyyyyypp oddd",
"d$ ppyyyyyy yy  XX#######@*#############@*#XXX  yy yyyyyypp $ddd",
"d; ppyyyyy yyyyy  ++*********************+++  yyyyy yyyyypp ;ddd",
"ddd ppyyy yyyyyyyy   ...*@@@@@@@@@@@*@...   yyyyyyyy yyypp ;dddd",
"dd; ppyy yyyyyyyyyyyy X.+XXXXXXXXXX.+XXX yyyyyyyyyyyy yypp edddd",
"dd;o pp yyyyyyyyyyyyy  .+XXXXXXXXXX.+XX  yyyyyyyyyyyyy pp eddedd",
"$$$$ p pyyyyyyyyyyyyy O                O yyyyyyyyyyyyyp p o;;edd",
"ddr$o ppppyyyyyyyyyyy OqqqqqqqqqqqqqqqqO yyyyyyyyyyypppp ooo$;dd",
"d;rro   ppppyyyyyyyyy OqqqqqqqqqqqqqqqqO yyyyyyyyypppp   ;ddeddd",
"dddd;e 3  pppppyyyyyy OqqqqqqqqqqqqqqqqO yyyyyyppppp  3 oo$ddddd",
"ddd$oo 033  ppppppppp OqqqqqqqqqqqqqqqqO ppppppppp  >30 o;eeeddd",
"ddddd;; 00>3   pppppp :qqqqqqqqqqqqqqqq: pppppp   3360 ;;ddddedd",
"ddd$$oo 0060 <<       :auuuuuuuuuuuuuua:       << 0060 ;eeeddddd",
"dddee;$o 660 0095><<<< auuuuuuuuuuuuuua <<<<>5900 006 e;$$dddddd",
"ddddd;;o 066 666616600<                >006616666 660 o$edd;;ddd",
"dd;d;ddoo 000 yyy6yy6664441111111111444666yy6yyy 000 ooo$$$$e;dd",
"$$$$$$$$o 000 yyy6yyyyy000040    040000yyyyy6yyy 000 od$$;;eed;d",
"ddddeee$$o 00 yyyy6yyyyyyyy6 **** 6yyyyyyyy6yyyy 00 oodo;edddddd",
";dee;$d$$o 66t yyy6yyyyyyyy @@@@*@ yyyyyyyy6yyy t66 ;;eddddddddd",
"dddddd;eeee t6 666666yyyyyy ###@*# yyyyyy666666 6t o$;dddddddddd",
"dddddddddeoo at iiiii66666 ####@*## 66666iiiii ta dedd;d;e;edddd",
"ddd;;d;;$$$oo a ssssiii6ii ####@*## ii6iiissss a ooo$$$$;;dddddd",
"ddddd;ddee;de;     sssswss ******** sswssss     oo$$ee;;eddddddd",
"dddde;;ddddddeeee;oo       @@@@@@@@        $oooe;;;ddddddedddddd",
"dddddddddd;;$$$$$;;eooeooooddee$$;;;;doooo$dd$$$e$$;;ddddddddddd",
"dddddddddddd;eddddd;;ddddeoodd$$$d$dddddeoo;dddd;;dddddddddddddd"
};
