/* XPM */
static char *result[] = {
/* columns rows colors chars-per-pixel */
"64 64 91 1 ",
"  c black",
". c #1C0000",
"X c #1E150A",
"o c #250000",
"O c #260000",
"+ c #2C0000",
"@ c #310000",
"# c #330000",
"$ c #390000",
"% c #3B0000",
"& c #3F0000",
"* c #2E1D0B",
"= c #3D280E",
"- c #302210",
"; c #2D2D2D",
": c #400000",
"> c #430000",
", c #440000",
"< c #470000",
"1 c #480000",
"2 c #4A0000",
"3 c #4C0000",
"4 c #4D0000",
"5 c #4E0000",
"6 c #4F0000",
"7 c #500000",
"8 c #510000",
"9 c #520000",
"0 c #540000",
"q c #550000",
"w c #560000",
"e c #570000",
"r c #580000",
"t c #590000",
"y c #5A0000",
"u c #5B0000",
"i c #5C0000",
"p c #5D0000",
"a c #5E0000",
"s c #600000",
"d c #610000",
"f c #620000",
"g c #630000",
"h c #640000",
"j c #650000",
"k c #660000",
"l c #680000",
"z c #690000",
"x c #6A0000",
"c c #6B0000",
"v c #6C0000",
"b c #6D0000",
"n c #6E0000",
"m c #6F0000",
"M c #700000",
"N c #720000",
"B c #730000",
"V c #750000",
"C c #760000",
"Z c #770000",
"A c #780000",
"S c #7A0000",
"D c #7B0000",
"F c #7C0000",
"G c #7D0000",
"H c #7E0000",
"J c #7F0000",
"K c #681818",
"L c #4F3313",
"P c #775428",
"I c #444444",
"U c #4C4C4C",
"Y c gray30",
"T c gray33",
"R c #565656",
"E c gray36",
"W c #606060",
"Q c gray42",
"! c gray46",
"~ c gray47",
"^ c #8B1818",
"/ c #875F2D",
"( c #A37237",
") c #818181",
"_ c #898989",
"` c gray57",
"' c gray58",
"] c #A0A0A0",
"[ c gray64",
"{ c gray69",
"} c None",
/* pixels */
"}}}}}}}}}}}OOOO.^^^t^JJJJJJJJJJJtBBBBBBBBtBBBOOOOOO}}}}}}}}}}}}}",
"}}}}}OOOOOOJJJJJJ^^t7777777tKKKKttt77KKK7tJJJJJBBtJOOOOOO}}}}}}}",
"}}}}}OOOtttttttttttmmmmttmmmmmmmmmmmtmmmmm77777777KK7mOOO}}}}}}}",
"}}}}}OAeOJJJttJJJJJJJJJ^t^JBBBBBBBBBtBJJJBBBBBtBBB^JOOtAO}}}}}}}",
"}}}}}OBMtOOJJtJJJJJJJJttttKKKKKKKtt77777BBBBBJtJJJ^OO2tJO}}}}}}}",
"}}}} OBBtBOOJtttttt777ttBBBBBBBBBtBBJJJJttttt7777OO@BSJtO }}}}}}",
"}}}} Ot7^BCjOOJtJJJJJBBtBBBBJJJBttBBBBBBBBtBBBBJO9MVJJJtO }}}}}}",
"}}} _OB7^^JBmtOttJJJJJJtJJJJJBBBtJJJJJJJBttBBBBOJtJtttttO_ }}}}}",
"}}} _OB7^^JBJtrOOJJJJJJtJJBBBBBBtBBBBBJ^^t^^JOOgctttJJJtO_ }}}}}",
"}} _OJB7^^^B77Gl5OOJJJJtttt777777777777BttJ8O4lGJtJJJJJtJO_ }}}}",
"}} _OJ7B^B^B7B^BZjtOtttJJJtJJJJJJ^^^^t^t77OOjCJJJJtJJJJJtO_ }}}}",
"}} _OB7B^BJB7B^BJJ77OOJJJJtJJJ^JJJBJtJJJCO#ttttttttJJJJJtO_ }}}}",
"} __OJ7tttt7BB^BJJ7KkoOJJJtBBBJ^^^^ttBJOOsxtJJJJJJttJJJJtO__ }}}",
"} _OBJ7JB^J7BBJBJJ7^JsiOOJtJJJ77BBttJ$OisJJJtJJJJJJttttttJO_ }}}",
"} _OBJ7BBBJ7B^BBBJ7^J^Hy4Ottt7Bt7771OOyHJJJJtJJJJJJtJJJJtJO_ }}}",
"} _OtJ7JBBJ7ttttBJ7tttJJVrOOJJJtJJuOrtJJJJJJtJJJJJJtJJJJtJO_ }}}",
"} _Ott7JJBJ7B^BttJ7^JtttJtJ%OOJtMOOxJtJJtttttJJJJJJtJJJJtJO_ }}}",
"} _OBJ7JJBJ7B^^BBtBBJBJBt7^h9#O+O9hJ^tttBJJJJtJJJJJtJJJJtJO_ }}}",
"}  OBJ7JJBJ7BJ^JBtJBJJJBt7^BJeOOtttJ^tJJBJJJJtttttttJJJBtJO  }}}",
"} ;OBJ7JJBJtBJBJBtJBJJJBttttt&OO&BtttttJBJJJJtJJJJJtJJJJ7JO; }}}",
"}} OBBtJJJJtBJBBBtJBJJJJJtJJ2OFFO>JB^t^JBJBJJtJJJJJtJJJJ7JO }}}}",
"}} OBBtJJtttJJBBBtJBJJJJJtJ0OVJJtO0BB7^^BJBJJtJJJJJtJJJJ7tO }}}}",
"}} OBJttttJtJJtttJtJJJJJJtJOnJBJtnOaJ7t^BBBJtJJJBJJtJJJJtBO }}}}",
"}} OBJtJJJJttttBBJtJJJJtttOkJJJJtJkOt7tttBBJtJBJBJJttttttBO }}}}",
"}} OBJtJJJJtJJBJJJttttttmOpJBBBJtJJaO7^JttBJtBBJBJJtJJJBtBO }}}}",
"}} OBJtJJJJtJJJJJJtJJJJZO0JJJJJJtJJJqOcBBJtttBBJBJJtJJJBtBO }}}}",
"}} OBJtJJJJttJJJJJJtJJH>O77BBBBBtJJttO>HBJBttBBBBJJtJJJBtBO }}}}",
"}} OtttJJJJJtJJJJJJtJJ<OBtB7ttJJtttJJJO1BJB7ttttBJtJJJJJ7BO }}}}",
"}} OJBJtJJJJtJJJJJJtJ6O^^tBBJJttJJtJJJJO6BB7BBBtttt^JJJB7BO }}}}",
"}} OJJJtJJJtttJJJtttrOJBBtBBBJJJJJtJJJJJO6B7B^BBJ7t^JJJ7BBO }}}}",
"}} OJJJtJttJJtJtttJtOcJJJtJJJJJJJJtJJJJJZOwtB^BBJ7t^JJJ7BBO }}}}",
"} ]OJJJtttJJJttJJJkOfBBBtt^^^^JJJJttJJJJJbOtB^BBJ7J^BJJ7B^O] }}}",
"} ]OJJJtJJJJJtJJJvOtJJJJtBBBBJJJJJJtJJJJJJgOd^^BJ7J^B^B7B^O] }}}",
"} ]OJJJJtJJJJtJJNOet777BtBBJJJJBBBJtJJJtttttONBBJ7B^B^BtttO] }}}",
"} ]OJJJJtJJJJtJZO,BBBBt77777BBBJJJtttttJJJJJ3OZBB7B^B^tBB^O] }}}",
"P ]OJJJJtJJJJtFO&JJBBBtJJJJJttttttJJJtJJJJJJJ:OMB7ttB^7BB^O] P}}",
"( ]]OJtttJJJJtyOBBBBBBt^^^^JJJJJJJJJJtJJJJJJJtO8B7Bttt7BBO]] P}}",
"}- ]OttJtJJJJtOJBBBJJJtBBBBBBJJJJJJJJtJJJJJJJtJOg7BB^^7^BO] X}}}",
"}- ]OtJJtJJJzOBBBBBBBBtJJJJJJJJJJJJJJtJJJJJJJtJJO7^BB^7^^O] -}}}",
"}P ]OJJJtJJnOtt7777BBBtBBBBBBBBBBBJJJtJJJJJttttttOnBB^7BJO] P}}}",
"}}} ]OJJtJNOM^^t^KKt77tJJJJJJJJJJJJJJtJttttJJJJJJtONB^7BO] P}}}}",
"}}P ]OJJtCOgJJJt^^^^JB7777ttttttttttttttJtJJJJJJJthOxJ7^O] /}}}}",
"}}PX OJJtOqJBBBtBBBJJJJJJJJtJJJJJJJJJJJJJtJJJJJJJtJwOb7^O /}}/}}",
"---- OJFO<^^^JBtBJJJJJJJJJJtJJJJJJJJJJJJJtJJJJJJJtJJ:Ot^O XPP/}}",
"}}(-XOGOt7ttttJtJBBBJJJJJJJtJJJJJJJJJJJJJtJJJJJJttttttOGOXXX-P}}",
"}P((XOjOJBtBBB77777BB^^^^^JtJJJJJJJJJJJJJtttttttJJJJJtOjOP}}/}}}",
"}}}}POODDDtmmmmmmmt77tttttttttttttttttttttDDDDtDDDDDDtDOOX-}}}}}",
"}}}-XOOOOOOJ^^^^JBtJ^^JJJJJJJJJJJtJJJJJJJJJJJJtJJJJOOOOOOP///}}}",
"}}}}}PP !!IOOOOJJJtBBBBBBBBBBBJJJtJJJJJJJJJJJJtOOOOTW! PP}}}}/}}",
"}}}--XX !!W! UUOOOOOOOOOOOOOOOOOOOOOOOOOOOOOOOOUU !!W! P///}}}}}",
"}}}//P-X WW! !!QEIUUUU [``````````````[ UUUUIEQ!! !!W /P--}}}}}}",
"}}}}}PPX !WW WWWWYWW!!U                I!!WWYWWWW WW! X-/}}PP}}}",
"}}P}P}}XX !!! ___W__WWWRRRYYYYYYYYYYRRRWWW__W___ !!! XXX----/P}}",
"--------X !!! ___W_____!!!!R!    !R!!!!_____W___ !!! X}--PP//}P}",
"}}}}///--X !! ____W________W LLLL W________W____ !! XX}XP/}}}}}}",
"P}//P-}--X WW) ___W________ ****L* ________W___ )WW PP/}}}}}}}}}",
"}}}}}}P//// )W WWWWWW______ ===*L= ______WWWWWW W) X-P}}}}}}}}}}",
"}}}}}}}}}/XX [) '''''WWWWW ====*L== WWWWW''''' )[ }/}}P}P/P/}}}}",
"}}}PP}PP---XX [ {{{{'''W'' ====*L== ''W'''{{{{ [ XXX----PP}}}}}}",
"}}}}}P}}//P}/P     {{{{~{{ LLLLLLLL {{~{{{{     XX--//PP/}}}}}}}",
"}}}}/PP}}}}}}////PXX       ********        -XXX/PPP}}}}}}/}}}}}}",
"}}}}}}}}}}PP-----PP/XX/XXXX}}//--PPPP}XXXX-}}---/--PP}}}}}}}}}}}",
"}}}}}}}}}}}}P/}}}}}PP}}}}/XX}}---}-}}}}}/XXP}}}}PP}}}}}}}}}}}}}}",
"}}}}}}}}}}}}}}}}}}}}}}}}}}}}}}}}}}}}}}}}}}}}}}}}}}}}}}}}}}}}}}}}"
};
