/* XPM */
static char *result[] = {
/* columns rows colors chars-per-pixel */
"64 64 31 1 ",
"  c black",
". c #260E00",
"X c #3A1700",
"o c gray17",
"O c #600000",
"+ c #7F0000",
"@ c #7F3300",
"# c gray31",
"$ c #515151",
"% c gray42",
"& c #727272",
"* c #AA0000",
"= c #AD0000",
"- c #B10000",
"; c #B60000",
": c #BC0000",
"> c #C40000",
", c #CE0000",
"< c #DA0000",
"1 c #EA0000",
"2 c #D8956C",
"3 c #FFB27F",
"4 c #808080",
"5 c #8E8E8E",
"6 c #AFAFAF",
"7 c #BCBCBC",
"8 c #FFC7A5",
"9 c #FFC9A8",
"0 c #CECECE",
"q c gray88",
"w c None",
/* pixels */
"wwwwwwwwwwwwwwwwwwwwwww   wwwwwwwwwwwwwwwwwwwwwwwwwwwwwwwwwwwwww",
"wwwwwwwwwwwwwwwwwwwwwwww     wwwwwwwwwwwwwwwwwwwwwwwwwwwwwwwwwww",
"wwwwwwwwwwwwwwwwwwwwwwwwww  q   wwwwwwwwwwwwwwwwwwwwwwwwwwwwwwww",
"wwwwwwwwwwwwwwwwwwwwwwwwwwww q77    wwwwwwwwwwwwwwwwwwwwwwwwwwww",
"wwwwwwwwwwwwwwwwwwwwwwwwwwwww  q7744   wwwwwwwwwwwwwwwwwwwwwwwww",
"wwwwwwwwwwwwwwwwwwwwwwwwwwwwwww  q77444   wwwwwwww  wwwwwwwwwwww",
"wwwwwwwwwwwwwwwwwwwwwwwwwwwwwwwww q7774444   wwww .. wwwwwwwwwww",
"wwwwwwwwwwwwwwwwwwwwwwwwwwwwwwwwww  qq7744444    XX. wwwwwwwwwww",
"wwwwwwwwwwwwwwwwwwwwwwwwwwwwwwwwwwww  q77744444 XX. wwwwwwwwwwww",
"wwwwwwwwwwwwwwwwwwwwwwwwwwwwwwwwwwwwww qq774444 XX. wwwwwwwwwwww",
"wwwwwwwwwwwwwwww     wwwwwwwwwwwwwwwww   q7744 XX. wwwwwwwwwwwww",
"wwwww    wwwwww  OOO  wwwwwwwwwwwwwww  OO q77 XX. @    wwwwwwwww",
"wwww 8333  wwww O++++  wwwwwwwwwwwww  ++++   XX.   3338 wwwwwwww",
"wwww 8333 3 ww  O+++++ www       www +++++O  X.  3 3338 wwwwwwww",
"wwww 883333 ww O++++++  w  33999  w  +++++  X.   333388 wwwwwwww",
"wwww 888333 ww O+++++++ w 3333399 w +++++  X.  w 333888 wwwwwwww",
"wwww 888888 ww O+++++++   3333399   +++++ ..  ww 888888 wwwwwwww",
"www         ww O++++   33 3333999 99   +++   www         wwwwwww",
"www &&&&&&$o w O++  333333 33399 933999  ++O ww o$&&&&&& wwwwwww",
"www &&&&&&$o w O+ 33333333  3999 93333999 +O ww o$&&&&&& wwwwwww",
"www &&&&&&$o w   33333  333 399 933  33399   ww o$&&&&&& wwwwwww",
"ww &&&&&&&$o ww 33333   32222222223   33392 www o$&&&&&&& wwwwww",
"ww &&&&&&&$o w 23333    2         2    33322 ww o$&&&&&&& wwwwww",
"ww &&&&&&&$o   2333  332           233  322   w o$&&&&&&& wwwwww",
"ww &&$$&&&$o    2333332             233322   #  o$&&&$$&& wwwwww",
"ww o$o$$&&$o 0   22332    5555555    2222    %# o$&&$$o$o wwwwww",
"ww  & &&&$o 06     22    555555555    22    55%# o$&&& &  wwwwww",
"w &&&&&&&$o 065         55555555555        555%# o$&&&&&&& wwwww",
"w &&&&&&$o 065555     555555555555555    555555%# o$&&&&&& wwwww",
"w &&&&&&$o 065555555555555555555555555555555555%# o$&&&&&& wwwww",
"w &&&&&&$o 0655555555555555      55555555555555%# o$&&&&&& wwwww",
"w &&&&&$o 065555555555555          5555555555555%# o$&&&&& wwwww",
"w &&&&&$o 065555555555#     1111     55555555555%# o$&&&&& wwwww",
"w &&&&&$o 065555555555#   <<<,,111    5555555555%# o$&&&&& wwwww",
"w &&&&&$o 06555555555#   :::;;-=,<1   5555555555%# o$&&&&& wwwww",
"w &&&&&$o 06555555555#  ;;:::::;-=,<  5555555555%# o$&&&&& wwwww",
"ww &&&&$o 065555555%#   :;--;::::;,>   555555555%# o$&&&& wwwwww",
"ww &&&&$o 065555555%#  :::;===;::::11  555555555%# o$&&&& wwwwww",
"ww &&&&$o 065555555%#  :::::;=-=-::11  555555555%# o$&&&& wwwwww",
"www &&&$o 065555555%#  ::::::::;**;11  555555555%# o$&&& wwwwwww",
"www &&&$o 065555555%#  :;--;::::::=>1  555555555%# o$&&& wwwwwww",
"wwww &&$o 065555555%#  :::=*;::::::<<  555555555%# o$&& wwwwwwww",
"wwwww &$o 065555555%#  ::::;=*=::::11  555555555%# o$& wwwwwwwww",
"wwwwww &$o 06555555%#  ::::::;==;::11  55555555%# o$& wwwwwwwwww",
"wwwwwww  o 06555555%#  ;-;:::::----11  55555555%# o  wwwwwwwwwww",
"wwwwwwwww  065555555%#  :==-;:::;:<,  55555555%#   wwwwwwwwwwwww",
"wwwwwwwwwww 06555555%#  :::-==;:::11  55555555%# wwwwwwwwwwwwwww",
"wwwwwwwwwwww 6555555%#  ::::::---:11  55555555% wwwwwwwwwwwwwwww",
"wwwwwwwwwwww 0655555%#  ;;;:::::;-,1  5555555%# wwwwwwwwwwwwwwww",
"wwwwwwwwwwwww 065555%#  :;;;::::::11  555555%# wwwwwwwwwwwwwwwww",
"wwwwwwwwwwwwww 066555%#  ;=-;;:::11  555555%# wwwwwwwwwwwwwwwwww",
"wwwwwwwwwwwwwww 00655%#  ::--=--;11  5555%%# wwwwwwwwwwwwwwwwwww",
"wwwwwwwwwwwwwwww  065%#  ::::;;--,<  55%%## wwwwwwwwwwwwwwwwwwww",
"wwwwwwwwwwwwwwwwww 06%#  ::::::::11  %%##  wwwwwwwwwwwwwwwwwwwww",
"wwwwwwwwwwwwwwwwwww  %#   =--;;;<<   ##  wwwwwwwwwwwwwwwwwwwwwww",
"wwwwwwwwwwwwwwwwwwwww  #  -;-;;;,<  #  wwwwwwwwwwwwwwwwwwwwwwwww",
"wwwwwwwwwwwwwwwwwwwwwww    :;-;<>    wwwwwwwwwwwwwwwwwwwwwwwwwww",
"wwwwwwwwwwwwwwwwwwwwwwwww  11<<11  wwwwwwwwwwwwwwwwwwwwwwwwwwwww",
"wwwwwwwwwwwwwwwwwwwwwwwww   111<   wwwwwwwwwwwwwwwwwwwwwwwwwwwww",
"wwwwwwwwwwwwwwwwwwwwwwwwww        wwwwwwwwwwwwwwwwwwwwwwwwwwwwww",
"wwwwwwwwwwwwwwwwwwwwwwwwwww      wwwwwwwwwwwwwwwwwwwwwwwwwwwwwww",
"wwwwwwwwwwwwwwwwwwwwwwwwwwwwwwwwwwwwwwwwwwwwwwwwwwwwwwwwwwwwwwww",
"wwwwwwwwwwwwwwwwwwwwwwwwwwwwwwwwwwwwwwwwwwwwwwwwwwwwwwwwwwwwwwww",
"wwwwwwwwwwwwwwwwwwwwwwwwwwwwwwwwwwwwwwwwwwwwwwwwwwwwwwwwwwwwwwww"
};
